<mxfile host="app.diagrams.net" modified="2024-05-19T18:25:58.347Z" agent="Mozilla/5.0 (Windows NT 10.0; Win64; x64) AppleWebKit/537.36 (KHTML, like Gecko) Chrome/124.0.0.0 Safari/537.36" etag="j0doXILy9eXSwZYzo6Vx" version="24.4.4" type="github">
  <diagram name="Page-1" id="5f0bae14-7c28-e335-631c-24af17079c00">
    <mxGraphModel dx="1050" dy="653" grid="1" gridSize="10" guides="1" tooltips="1" connect="1" arrows="1" fold="1" page="1" pageScale="1" pageWidth="1100" pageHeight="850" background="none" math="0" shadow="0">
      <root>
        <mxCell id="0" />
        <mxCell id="1" parent="0" />
        <mxCell id="gGCnpAlOCdv51jVyYq-0-1" value="&lt;font style=&quot;font-size: 18px;&quot;&gt;Grievance_portals&amp;nbsp;&lt;/font&gt;" style="text;html=1;align=center;verticalAlign=middle;whiteSpace=wrap;rounded=0;" vertex="1" parent="1">
          <mxGeometry x="520" y="10" width="90" height="30" as="geometry" />
        </mxCell>
        <mxCell id="gGCnpAlOCdv51jVyYq-0-2" value="Student" style="swimlane;" vertex="1" parent="1">
          <mxGeometry x="380" y="50" width="200" height="200" as="geometry" />
        </mxCell>
      </root>
    </mxGraphModel>
  </diagram>
</mxfile>
